<?xml version="1.0" encoding="UTF-8"?><svg id="a" xmlns="http://www.w3.org/2000/svg" xmlns:xlink="http://www.w3.org/1999/xlink" viewBox="0 0 918.25 770"><defs><style>.d{fill:#ff2a48;}.e{fill:url(#c);}.f,.g{stroke:#000;stroke-miterlimit:10;stroke-width:3px;}.h{fill:url(#b);}.g{fill:#00bd74;}</style><radialGradient id="b" cx="441.8" cy="353.53" fx="441.8" fy="353.53" r="7.17" gradientTransform="translate(-1.47 -57.34) scale(1.07 1.12)" gradientUnits="userSpaceOnUse"><stop offset="0" stop-color="#ff2a48"/><stop offset=".13" stop-color="#ff2946" stop-opacity=".99"/><stop offset=".26" stop-color="#ff2743" stop-opacity=".94"/><stop offset=".38" stop-color="#ff243e" stop-opacity=".87"/><stop offset=".51" stop-color="#ff1f36" stop-opacity=".76"/><stop offset=".63" stop-color="#ff1a2c" stop-opacity=".62"/><stop offset=".75" stop-color="#ff1320" stop-opacity=".46"/><stop offset=".87" stop-color="#ff0a12" stop-opacity=".26"/><stop offset=".98" stop-color="#ff0102" stop-opacity=".03"/><stop offset="1" stop-color="red" stop-opacity="0"/></radialGradient><radialGradient id="c" cx="406.19" cy="354.97" fx="406.19" fy="354.97" r="7.17" xlink:href="#b"/></defs><ellipse class="f" cx="459.26" cy="509.87" rx="88.82" ry="166.39"/><path class="g" d="M379.16,525.72c8.3,25.42,1.11,27.19,7.49,54.72,3.59,15.49,12.48,53.81,25.68,78.17,1.14,2.1,3.98,7.17,2.14,11.17-3.06,6.67-18.26,8.46-23.54,2.23-1.86-2.19-2.08-4.88-2.14-5.58-2.38-25.96-45.43-83.41-55.65-87.1-.57-.21-3.16-1.01-4.28-3.35-1.02-2.14-.27-4.4,0-5.58,1.97-8.74-10.25-14.19-10.7-26.8-.15-4.35,1.22-5.89,0-10.05-.76-2.59-1.82-3.77-5.35-8.93-4.02-5.87-6.03-8.81-6.42-10.05-1.48-4.73,.73-6.33,2.14-16.75,1.43-10.55-.29-12.97,2.14-15.63,2.2-2.41,5.95-2.96,17.12-1.12,14.01,2.31,21.02,3.47,26.75,6.7,14.67,8.27,20.25,24.6,24.61,37.97Z"/><path class="g" d="M529.89,523.27c-8.3,25.42-1.11,27.19-7.49,54.72-3.59,15.49-12.48,53.81-25.68,78.17-1.14,2.1-3.98,7.17-2.14,11.17,3.06,6.67,18.26,8.46,23.54,2.23,1.86-2.19,2.08-4.88,2.14-5.58,2.38-25.96,45.43-83.41,55.65-87.1,.57-.21,3.16-1.01,4.28-3.35,1.02-2.14,.27-4.4,0-5.58-1.97-8.74,10.25-14.19,10.7-26.8,.15-4.35-1.22-5.89,0-10.05,.76-2.59,1.82-3.77,5.35-8.93,4.02-5.87,6.03-8.81,6.42-10.05,1.48-4.73-.73-6.33-2.14-16.75-1.43-10.55,.29-12.97-2.14-15.63-2.2-2.41-5.95-2.96-17.12-1.12-14.01,2.31-21.02,3.47-26.75,6.7-14.67,8.27-20.25,24.6-24.61,37.97Z"/><path class="g" d="M380.11,402.97c38.06-9.08,60.77-80.4,53.84-89.27-4.02-5.15-17.21,11.78-35.89,4.7-3.09-1.17-11.82-4.48-13.91-12.92-2.22-8.97,5.5-13.84,4.94-26.43-.49-11.03-6.68-13.14-9.87-26.43-2.36-9.83-.58-15.33,.45-29.37,2.74-37.54-6.63-44.68,0-62.84,3.78-10.37,12.06-22.35,21.54-22.91,12.12-.71,21.01,17.57,23.78,14.68,1.82-1.89-.7-11.08-4.49-17.62-6.84-11.81-20.03-18.78-29.16-13.51-5.05,2.91-4.05,6.79-8.52,10.57-10.23,8.64-22.74-5.37-56.53-18.79-14.46-5.75-14.88-4.26-20.19-8.22-14.59-10.89-14.32-24.29-28.72-35.24-10.86-8.26-12.35-1.64-23.78-9.98-16.3-11.9-14.8-26.49-28.72-32.89-9.57-4.4-12.52,1.47-24.23-3.52-10.92-4.66-15.58-12.85-20.19-17.03C152.76-19.17,94.8,71.09,31.94,56.45c-16.64-3.88-26.55-13.46-29.61-8.22-5.45,9.3,16.75,55.13,49.35,70.48,15.12,7.12,18.69,1.18,31.86,9.4,21.52,13.42,20.83,34.77,38.59,58.73,30.43,41.06,65.7,23.26,74.93,54.62,4.09,13.9-3.48,15.23-4.94,65.78-.98,33.96,1.94,50.63,9.87,56.38,4.54,3.3,10.92,3.14,11.22,6.46,.27,2.96-4.66,4.71-7.63,8.22-10.63,12.59-4.14,57.51,17.05,81.05,2.8,3.11,16.98,18.86,27.37,12.92,7.35-4.21,7.17-16.06,11.67-29.37,10.95-32.42,41.6-49.6,61.92-52.86,28.29-4.53,33.47,18.42,56.53,12.92Z"/><path d="M248.51,471.14c-3.27-11.75,.45-23.87,.72-35.75,.14-6.27-.81-12.48-1.62-18.68s-1.22-12.49-.98-18.81c.49-12.68,2.58-25.33,4.32-37.88s3.6-24.69,6.1-36.91c4.57-22.36,10.79-45.6,24.5-64.26,12.38-16.84,30.76-27.45,47.59-39.22,8.38-5.86,16.56-12.13,23.58-19.61,7.94-8.46,14.4-18.18,20.48-28.02,1.5-2.43,2.98-4.87,4.47-7.32,1-1.66-1.59-3.16-2.59-1.51-6.12,10.09-12.26,20.26-19.78,29.39-6.87,8.33-14.99,15.34-23.7,21.66-16.61,12.05-35.08,22.17-48.56,37.98-14.89,17.45-22.07,40.02-27.12,62.01-2.83,12.34-4.94,24.84-6.77,37.37s-3.67,24.88-4.89,37.37c-.62,6.35-.94,12.76-.54,19.14s1.57,12.68,2.17,19.04,.24,12.11-.44,18.2-1.52,11.98-1.2,18.01c.15,2.91,.59,5.8,1.37,8.62,.52,1.86,3.41,1.07,2.89-.8h0Z"/><path d="M374.96,164.33c1.61,.17,3-.94,3.64-2.35,.75-1.64,.48-3.54,.6-5.29,.27-3.96,1.26-7.91,2-11.81,.18-.96,.36-1.92,.55-2.88,.16-.83,.13-1.43,.99-1.73,1.6-.57,3.45-.47,5.12-.42,3.29,.11,6.58,.3,9.55-1.39,1.68-.96,.17-3.55-1.51-2.59-2.8,1.6-6.17,.97-9.24,.95-2.87-.02-6.78,.19-7.63,3.52-.94,3.7-1.48,7.58-2.15,11.34-.31,1.73-.58,3.48-.69,5.24-.06,.98,.42,4.58-1.23,4.41-1.92-.2-1.9,2.8,0,3h0Z"/><path d="M380.54,137.22c-6.09,5.98-13.12,10.8-20.2,15.52s-13.99,9.36-21.3,13.53-14.86,7.75-22.9,10.16-16.38,3.74-24.74,4.44c-16.82,1.42-33.73,.56-50.56,1.63-8.32,.53-16.64,1.52-24.75,3.48s-16.54,5.14-24.67,8.11c-15.36,5.62-32.27,11.24-48.69,6.86-1.98-.53-3.92-1.2-5.8-2.03-1.75-.77-3.28,1.81-1.51,2.59,15.71,6.94,33.19,3.6,48.84-1.7,8.37-2.83,16.56-6.19,25-8.82s16.83-4.19,25.5-5.01c17.04-1.62,34.19-.73,51.26-1.72,8.49-.49,17-1.46,25.29-3.42s16.16-5.05,23.7-8.94,14.81-8.56,21.94-13.28c7.16-4.74,14.43-9.42,21.01-14.97,1.62-1.37,3.2-2.8,4.71-4.29,1.38-1.35-.74-3.48-2.12-2.12h0Z"/><path d="M394.43,133.79c-15.22,1.72-30.43,3.52-45.67,5.13s-30.22,2.73-45.32,1.43-29.09-5.84-43.62-9c-6.84-1.49-13.71-2.47-20.69-2.94s-13.44-.67-20.03-2.02-12.78-4.09-18.02-8.51-9.29-9.34-14.06-13.88c-8.72-8.31-18.78-15.23-29.62-20.46-21.45-10.35-45.92-14.24-69.47-10.4-6.64,1.08-13.01,3.11-19.56,4.58-3.63,.81-7.32,1.38-11.05,1.22s-7.22-1.15-10.62-2.48c-6.26-2.46-12.34-5.71-18.2-9s-11.07-6.7-15.84-11.07c-2.36-2.16-4.52-4.51-6.49-7.03-1.18-1.52-3.29,.61-2.12,2.12,7.93,10.2,19.18,16.87,30.55,22.61,6.17,3.11,12.53,6.5,19.45,7.54s14.02-.63,20.78-2.43c12.29-3.27,24.58-5.05,37.33-4.36s24.17,3.33,35.51,7.73c11.48,4.46,22.31,10.8,31.76,18.7s17.48,19.88,29.51,25.12,26.2,4.12,39.29,5.92c14.79,2.04,28.96,7.02,43.64,9.57s30.12,2.39,45.17,1.18,30.64-3.21,45.93-4.94l11.45-1.29c1.9-.21,1.92-3.22,0-3h0Z"/><path class="g" d="M538.14,409.38c-38.06-9.08-60.77-80.4-53.84-89.27,4.02-5.15,17.21,11.78,35.89,4.7,3.09-1.17,11.82-4.48,13.91-12.92,2.22-8.97-5.5-13.84-4.94-26.43,.49-11.03,6.68-13.14,9.87-26.43,2.36-9.83,.58-15.33-.45-29.37-2.74-37.54,6.63-44.68,0-62.84-3.78-10.37-12.06-22.35-21.54-22.91-12.12-.71-21.01,17.57-23.78,14.68-1.82-1.89,.7-11.08,4.49-17.62,6.84-11.81,20.03-18.78,29.16-13.51,5.05,2.91,4.05,6.79,8.52,10.57,10.23,8.64,22.74-5.37,56.53-18.79,14.46-5.75,14.88-4.26,20.19-8.22,14.59-10.89,14.32-24.29,28.72-35.24,10.86-8.26,12.35-1.64,23.78-9.98,16.3-11.9,14.8-26.49,28.72-32.89,9.57-4.4,12.52,1.47,24.23-3.52,10.92-4.66,15.58-12.85,20.19-17.03,27.69-25.1,85.65,65.16,148.51,50.51,16.64-3.88,26.55-13.46,29.61-8.22,5.45,9.3-16.75,55.13-49.35,70.48-15.12,7.12-18.69,1.18-31.86,9.4-21.52,13.42-20.83,34.77-38.59,58.73-30.43,41.06-65.7,23.26-74.93,54.62-4.09,13.9,3.48,15.23,4.94,65.78,.98,33.96-1.94,50.63-9.87,56.38-4.54,3.3-10.92,3.14-11.22,6.46-.27,2.96,4.66,4.71,7.63,8.22,10.63,12.59,4.14,57.51-17.05,81.05-2.8,3.11-16.98,18.86-27.37,12.92-7.35-4.21-7.17-16.06-11.67-29.37-10.95-32.42-41.6-49.6-61.92-52.86-28.29-4.53-33.47,18.42-56.53,12.92Z"/><path class="g" d="M416.23,339.19c-10.75-6.39-28.99,6.52-38.53,16.75-4.72,5.06-13.09,15.66-19.26,42.44-13.25,57.45,.44,116.3-3.21,128.42-.13,.43-.78,2.44,0,4.47,1.62,4.24,8.84,6.87,12.84,4.47,2.59-1.56,1.89-4.07,5.35-7.82,2.73-2.96,5.64-4.07,6.42-4.47,8.72-4.46,3.77-48.3,9.63-75.94,7.78-36.73,33.46-39.29,35.32-77.05,.31-6.23,1.25-25.44-8.56-31.27Z"/><path class="g" d="M488.69,340.69c10.75-6.39,28.99,6.52,38.53,16.75,13.1,14.05,17.08,30.82,19.26,42.44,10,53.14,5.31,117.14-4.82,117.81-6.48,.43-4.25-25.77-26.22-68.68-17.49-34.15-33.84-46.93-35.32-77.05-.31-6.23-1.25-25.44,8.56-31.27Z"/><path class="g" d="M408.96,326.73c-.38-6.2-4.51-6.75-5.35-12.28-1.54-10.13,10.5-20.01,16.05-24.57,7.05-5.79,17.33-14.22,32.1-14.52,23.51-.47,46.31,19.92,44.95,33.5-.64,6.35-6.57,11.4-4.28,18.98,1.32,4.37,3.99,5.01,4.28,8.93,.49,6.62-6.83,8.88-7.49,14.52-.97,8.26,13.17,11.6,22.47,24.57,10.72,14.95,8.94,34.48,7.49,50.25-1.62,17.64-5.4,17.66-8.56,35.73-6.82,38.95,8.97,53.52-2.14,80.4-5,12.1-6.64,7.13-20.33,29.03-11.98,19.16-32.68,52.27-24.61,75.94,5.88,17.27,14.98,25.68,14.98,25.68,2.01,1.86,4.6,3.9,4.28,4.47-.66,1.18-14.31-2.85-21.4-10.05-19.93-20.24-7.92-85.77,23.54-118.37,4.6-4.77,11.61-10.9,16.05-22.33,6.08-15.67,1.89-27.27,0-44.67-5.38-49.61,15.98-73.09,0-97.15-.76-1.14-7.67-11.55-11.77-10.05-1.07,.39-3.52,2.16-3.21,16.75,.3,13.95,.45,20.93,5.35,34.62,9.28,25.9,6.09,69.44-2.14,96.04-13.85,44.75-41.38,39.57-43.88,74.82-.51,7.21-2.04,45.39,14.98,72.59,1.82,2.9,5.63,8.53,6.42,16.75,1.79,18.61-13.27,35.93-16.05,34.62-1.88-.89,3.1-9.74,2.14-24.57-.86-13.27-5.91-22.55-8.56-27.92-11.99-24.29-16.76-53.6-17.12-67-.67-24.67,12.71-27.62,32.1-70.35,8.98-19.79,39.79-87.69,14.98-121.72-.9-1.24-11.32-15.18-22.47-13.4-14.31,2.28-22.18,29.24-24.61,45.79-6.91,46.95,22.36,61.02,14.98,101.62-5.75,31.62-24.85,30.54-24.61,58.07,.22,25.4,16.55,34.18,19.26,72.59,1.08,15.37-.32,31.14-2.14,31.27-1.79,.13-2.81-14.84-7.49-33.5-9.8-39.01-22.36-41.4-24.61-63.65-2.96-29.24,18.05-31.88,20.33-67,2.47-38.05-21.78-41.06-17.12-74.82,3.77-27.3,22.25-44.35,16.05-74.82-.85-4.17-1.57-7.57-3.21-7.82-7.61-1.16-37.27,65.24-18.19,118.37,6.7,18.65,13.39,18.93,14.98,34.62,3.64,35.99-28.3,67.04-37.46,75.94-6.49,6.31-17.11,15.32-19.26,13.4-1.77-1.58,2.91-9.84,14.98-32.38,7.14-13.34,12.96-19.35,17.12-32.38,0,0,2.02-6.34,3.21-13.4,5.23-31.1-14.44-52.19-12.84-87.1,.13-2.85,2.26-43.46,16.05-63.65,1.48-2.17,8.48-11.98,5.35-18.98-1.65-3.7-5.04-3.63-5.35-6.7-.8-7.86,15.26-13.64,13.91-20.1-.68-3.25-4.9-2.59-6.42-6.7-2.08-5.63,4.78-9.7,4.28-17.87Z"/><path class="f" d="M464.61,342.36c-.83-1.25,1.21-4.19,5.27-10.05,3.8-5.49,5.71-8.23,7.38-7.82,2.28,.56,3.88,6.67,2.11,11.17-2.77,7-13.28,8.94-14.76,6.7Z"/><path class="f" d="M439.22,344.16c.83-1.25-1.21-4.19-5.27-10.05-3.8-5.49-5.71-8.23-7.38-7.82-2.28,.56-3.88,6.67-2.11,11.17,2.77,7,13.28,8.94,14.76,6.7Z"/><ellipse class="h" cx="471.32" cy="337.45" rx="7.74" ry="7.93"/><ellipse class="d" cx="471.03" cy="336.78" rx="4.82" ry="5.03"/><ellipse class="e" cx="433.21" cy="339.05" rx="7.74" ry="7.93"/><ellipse class="d" cx="432.92" cy="338.38" rx="4.82" ry="5.03"/><path class="g" d="M531.19,511.49c2.83,2.72,4.39,5.28,7.79,5.8,2.85,.43,6.52-.6,8.06-3.2,1.09-1.84,.35-3.16,.83-5.52,1.03-5.09,6.18-7.27,7.84-8.89,9.49-9.26-17.52-49.21-17.52-49.21-7.24-6.9-18.55-18.42-30.58-34.39-14.68-19.49-29.48-44.34-32.59-42.63-1.66,.91,2.01,8.3-1.99,13.24-2.63,3.25-6.44,2.77-7.34,5.58-1.08,3.37,3.23,7.66,4.13,8.59,15.49,16.18,26.83,92.66,47.39,102.71,3,1.46,8.4,2.59,13.97,7.94Z"/><path class="g" d="M418.39,375.47c-.25-.91-1.52-1.26-3.01-1.62-10.6-2.61-15.9-3.92-21.14-3.46-12.51,1.09-23.35,7.21-22.97,8.68,.1,.39,.95,.28,8.62,.28,9.02,0,10.73,.15,12.85,.97,4.17,1.63,3.72,3.45,6.9,4.52,8.11,2.73,19.61-6.21,18.74-9.37Z"/><path class="g" d="M467.65,393.7c.37,10.5-52.56,23.57-54.73,18.17-.41-1.02,8.29-7.19,25.68-19.53,5.63-3.99,9.57-6.71,15.07-6.58,6.3,.15,13.84,4.03,13.97,7.94Z"/><path class="g" d="M472.77,395.67c-4.91,1.55-7.99-4.55-17.64-5.15-5.81-.36-13,1.33-13.68,4.54-.94,4.44,11.07,9.48,10.14,11.83-.65,1.65-7.41,1.22-12.69-2.08-1.2-.75-8.01-5.19-8.02-11.49-.01-6.52,7.3-11.07,7.11-11.27-.21-.23-10.29,4.84-11.84,13.89-1.69,9.9,7.77,19.09,5.47,21.24-.97,.91-3.22-.19-4.23-.69-1.71-.84-5.31-3.19-8.75-13.87-.94-2.91-1.48-4.34-1.56-5.57-.57-8.6,7.65-14.66,6.86-15.62-.6-.73-6.03,1.84-13.91,8.93-14.84,13.37-20.08,26.36-21.4,25.68-1.42-.73,1.38-17.51,13.14-30.88,10.97-12.48,24.33-16.51,29.75-17.74,15.56-3.55,43.41-4.77,48.63,7.96,2.97,7.24-1.61,18.45-7.38,20.27Z"/><path class="g" d="M351.25,497.25c-1.52,4.21,.04,11.8,3.21,26.8,1.54,7.28,2.21,9.49,4.28,11.17,.96,.78,5.23,3.89,16.05,0,15.43-5.55,25.25-18.54,39.6-37.97,9.71-13.15,15.42-23.24,23.54-29.03,.39-.28,1.91-1.35,3.21-3.35,5.36-8.25,.87-23.04-3.21-23.45-1.46-.15-2.69,1.56-3.21,2.23-8.68,11.24-36.24,17.72-71.7,41.32-5.73,3.81-9.81,6.83-11.77,12.28Z"/><path class="g" d="M431.44,446.22c-5.03,5.8-2.72,15.44-2.14,17.87,1.36,5.66,3.84,8.3,5.35,11.17,8.85,16.77-13.73,44.59-10.7,46.9,1.83,1.39,12.37-7,19.26-20.1,7-13.3,6.65-24.65,8.56-24.57,2.09,.09,3.96,13.8,3.21,26.8-.51,8.85-1.38,23.85-10.7,35.73-1.95,2.48-4.58,5.24-4.28,5.58,.49,.56,8.82-4.7,13.91-11.17,15.11-19.21,4.38-52.69,8.56-53.6,1.03-.23,2.23,1.68,3.21,3.35,2.8,4.78,18.14,31.02,11.77,60.3-.58,2.66-1.59,6.5-1.07,6.7,.79,.31,5.54-7.61,7.49-16.75,2.84-13.3-1.1-25.16-3.21-31.27-3.97-11.51-8.83-16.57-7.49-17.87,1.79-1.73,12.93,4.82,20.33,15.63,8.86,12.94,8.98,27.04,10.7,26.8,1.12-.16,1.47-6.19,1.07-11.17-.92-11.34-5.95-19.65-8.56-23.45-7.68-11.2-11.94-9.07-22.47-20.1-14.56-15.25-13.19-26.4-24.61-30.15-5.68-1.86-13.84-1.67-18.19,3.35Z"/><path d="M672.63,478.34c3.28-11.79-.16-23.8-.59-35.7-.23-6.36,.69-12.65,1.52-18.93,.84-6.36,1.3-12.69,1.06-19.1-.45-12.56-2.53-25.08-4.24-37.51-1.72-12.55-3.62-25.09-6.13-37.51-4.54-22.46-10.73-45.86-24.21-64.79-12.21-17.13-30.22-28.1-47.23-39.83-8.58-5.91-16.98-12.16-24.24-19.68-8.14-8.43-14.66-18.24-20.81-28.17-1.55-2.51-3.08-5.03-4.61-7.55-1-1.65-3.6-.14-2.59,1.51,6.02,9.93,12.08,19.88,19.39,28.94,6.67,8.27,14.51,15.28,23.02,21.61,16.4,12.2,34.87,22.06,48.67,37.44,15.28,17.03,22.51,39.59,27.59,61.47,2.82,12.14,4.93,24.44,6.75,36.76s3.72,25.13,4.97,37.74c.62,6.25,.95,12.55,.61,18.84s-1.48,12.49-2.12,18.75-.4,12.32,.29,18.52,1.51,11.8,1.3,17.75c-.1,2.94-.51,5.82-1.3,8.65-.52,1.86,2.38,2.66,2.89,.8h0Z"/><path d="M543.29,167.74c-1.62,.17-1.17-3.22-1.22-4.18-.09-1.84-.38-3.66-.7-5.47-.67-3.76-1.22-7.64-2.15-11.34-.84-3.33-4.77-3.53-7.63-3.52-3.07,.02-6.44,.65-9.24-.95-1.68-.96-3.19,1.63-1.51,2.59,2.96,1.69,6.26,1.5,9.55,1.39,1.65-.05,3.33-.09,4.93,.37,1.02,.29,.99,.79,1.18,1.78s.36,1.92,.55,2.88c.74,3.9,1.73,7.84,2,11.81,.12,1.75-.14,3.65,.6,5.29,.64,1.41,2.04,2.52,3.64,2.35,1.9-.2,1.92-3.2,0-3h0Z"/><path d="M535.59,145.75c6.16,6.04,13.27,10.96,20.43,15.74s14.24,9.53,21.68,13.78,15.07,7.85,23.18,10.33,16.6,3.84,25.08,4.6c17.04,1.53,34.17,.63,51.23,1.69,8.59,.54,17.16,1.59,25.51,3.72s16.81,5.42,25.1,8.43c15.59,5.66,32.84,10.77,49.36,5.98,1.94-.56,3.83-1.28,5.68-2.1s.24-3.36-1.51-2.59c-15.51,6.85-33.03,2.7-48.31-2.61-8.2-2.85-16.25-6.12-24.57-8.62s-16.5-3.91-24.95-4.71c-16.82-1.6-33.73-.76-50.58-1.69-8.31-.46-16.61-1.36-24.73-3.25s-15.97-4.9-23.42-8.74-14.69-8.48-21.75-13.16-14.15-9.2-20.59-14.63c-1.62-1.37-3.2-2.8-4.71-4.29-1.38-1.35-3.5,.77-2.12,2.12h0Z"/><path d="M523.82,143.2c15.35,1.73,30.68,3.56,46.04,5.17,15.16,1.59,30.47,2.71,45.69,1.32s29.11-5.88,43.67-9.04c7.02-1.53,14.06-2.46,21.23-2.93,6.63-.43,13.3-.73,19.82-2.11s12.33-3.92,17.49-7.97c5.24-4.11,9.55-9.2,14.28-13.85,8.78-8.64,18.99-15.76,30.06-21.14,22-10.69,47.53-14.37,71.55-9.47,6.85,1.4,13.49,3.77,20.43,4.75s13.69-.2,20.28-3.02c6.07-2.59,12.01-5.68,17.74-8.95s10.89-6.75,15.61-11.06c2.36-2.16,4.52-4.51,6.49-7.03,1.17-1.51-.94-3.64-2.12-2.12-7.99,10.28-19.34,16.83-30.8,22.57-6.39,3.2-13.05,6.71-20.34,7.02s-14.58-2.16-21.68-3.95c-23.22-5.83-48.11-3.82-70.32,5-11.12,4.42-21.53,10.46-30.84,17.98-4.93,3.98-9.34,8.45-13.74,13-4.66,4.83-9.52,9.55-15.68,12.4-12.23,5.67-26.43,4.2-39.47,6.02-14.54,2.03-28.49,6.86-42.92,9.45-15,2.69-30.34,2.4-45.47,1.17-15.22-1.24-30.38-3.2-45.55-4.91l-11.45-1.29c-1.92-.22-1.9,2.79,0,3h0Z"/><path class="g" d="M495.65,662.86c5.88-5.83,18.92-4.04,24.61,2.23,3.5,3.86,2.59,7.63,4.28,17.87,3.02,18.26,8.11,19.39,9.63,32.38,2.03,17.3-4.95,32.64-6.42,32.38-2.06-.36,1.69-32.32,1.07-32.38-.65-.07-3.99,34.72-5.35,34.62-1.31-.1-.63-32.38-1.07-32.38-.3,0-.78,14.86-5.35,32.38-1.1,4.23-1.67,5.63-2.14,5.58-2.63-.25-.65-44.65-1.07-44.67-.15,0-.57,5.72-1.07,17.87-1.01,24.54-.57,32.12-2.14,32.38-1.88,.32-5.62-10.02-7.49-20.1-3.58-19.28,.03-35.73,0-35.73-.03,0-4.37,27.09-7.49,44.67-1.63,9.15-2.79,13.36-4.28,13.4-2.68,.07-5.88-13.42-6.42-25.68-.55-12.38,1.93-15.98,4.28-32.38,4.03-28.19,.02-36.09,6.42-42.44Z"/><path class="g" d="M414.31,668c-5.88-5.83-18.92-4.04-24.61,2.23-3.5,3.86-2.59,7.63-4.28,17.87-3.02,18.26-8.11,19.39-9.63,32.38-2.03,17.3,4.95,32.64,6.42,32.38,2.06-.36-1.69-32.32-1.07-32.38,.65-.07,3.99,34.72,5.35,34.62,1.31-.1,.63-32.38,1.07-32.38,.3,0,.78,14.86,5.35,32.38,1.1,4.23,1.67,5.63,2.14,5.58,2.63-.25,.65-44.65,1.07-44.67,.15,0,.57,5.72,1.07,17.87,1.01,24.54,.57,32.12,2.14,32.38,1.88,.32,5.62-10.02,7.49-20.1,3.58-19.28-.03-35.73,0-35.73,.03,0,4.37,27.09,7.49,44.67,1.63,9.15,2.79,13.36,4.28,13.4,2.68,.07,5.88-13.42,6.42-25.68,.55-12.38-1.93-15.98-4.28-32.38-4.03-28.19-.02-36.09-6.42-42.44Z"/><path d="M418.62,327.12c.33-2.72,.46-5.47,.37-8.21-.05-1.46-.13-2.9-1.45-3.8-.49-.34-1.08-.52-1.64-.71l-2.06-.72c-.77-.27-1.64,.3-1.85,1.05-.23,.83,.28,1.58,1.05,1.85l1.74,.6c.35,.12,.89,.22,1.11,.43-.03-.03-.08-.34,.04,.11,.04,.15,.04,.43,.04,.62,.03,.58,.04,1.16,.05,1.74,.02,2.36-.11,4.71-.4,7.05-.1,.81,.76,1.5,1.5,1.5,.89,0,1.4-.69,1.5-1.5h0Z"/><path d="M485.8,326.04l-.49-6.59c-.04-.56-.08-1.12-.13-1.67-.01-.19-.03-.38-.03-.56,0-.61-.03,.39-.12,.13-.03-.09,1.07-.68,1.2-.76,.43-.23,.86-.39,1.32-.54,.77-.24,1.27-1.05,1.05-1.85s-1.07-1.29-1.85-1.05c-1.15,.36-2.27,.88-3.24,1.59-.6,.44-1.06,.92-1.27,1.65-.18,.62-.07,1.3-.02,1.94l.58,7.7c.06,.81,.65,1.5,1.5,1.5,.76,0,1.56-.69,1.5-1.5h0Z"/></svg>