<?xml version="1.0" encoding="UTF-8"?><svg id="a" xmlns="http://www.w3.org/2000/svg" xmlns:xlink="http://www.w3.org/1999/xlink" viewBox="0 0 1366 768"><defs><style>.h,.i{fill:#fff;}.j{fill:#ffca3f;}.i{opacity:.54;}.k{fill:#2a0063;}.l{fill:url(#c);}.m{fill:url(#f);}.n{fill:#ffff8a;}.o{fill:url(#g);}.p{fill:url(#b);}.q{opacity:.78;}.r{fill:#7d009e;}.s{fill:#ffed93;}.t{fill:url(#d);}.u{fill:url(#e);}.v{fill:#ff936a;}</style><radialGradient id="b" cx="1131.49" cy="209.02" fx="1131.49" fy="209.02" r="156.04" gradientTransform="translate(180.99 -439.45) rotate(23.84)" gradientUnits="userSpaceOnUse"><stop offset="0" stop-color="#2a0080"/><stop offset="1" stop-color="#fff" stop-opacity="0"/></radialGradient><linearGradient id="c" x1="-930.58" y1="298.91" x2="-543.58" y2="298.91" gradientTransform="translate(923.51 -302.8) rotate(-90) scale(.7)" gradientUnits="userSpaceOnUse"><stop offset="0" stop-color="#2a0080"/><stop offset=".15" stop-color="#2a0079"/><stop offset=".51" stop-color="#2a006f"/><stop offset="1" stop-color="#2a006d"/></linearGradient><linearGradient id="d" x1="-468.95" y1="-1170.42" x2="-81.95" y2="-1170.42" gradientTransform="translate(431.54 386.19) rotate(-90) scale(.28)" xlink:href="#c"/><linearGradient id="e" x1="1665.96" y1="1.25" x2="2052.96" y2="1.25" gradientTransform="translate(353.56 401.7) rotate(-90) scale(.16)" xlink:href="#c"/><linearGradient id="f" x1="521.13" y1="1252.39" x2="908.13" y2="1252.39" gradientTransform="translate(459.72 285.64) rotate(-90) scale(.12)" xlink:href="#c"/><linearGradient id="g" x1="-2175.99" y1="1244.29" x2="-1788.99" y2="1244.29" gradientTransform="translate(555.28 -18.76) rotate(-90) scale(.34)" xlink:href="#c"/></defs><rect class="k" width="1366" height="768"/><ellipse class="p" cx="1131.49" cy="209.02" rx="156.04" ry="155.96" transform="translate(12.05 475.11) rotate(-23.84)"/><g class="q"><ellipse class="r" cx="98.83" cy="652.47" rx="69.43" ry="21.12" transform="translate(-176.95 52.95) rotate(-16.09)"/><ellipse class="v" cx="100.18" cy="652.27" rx="38.85" ry="11.08" transform="translate(-180.69 55.11) rotate(-16.46)"/><ellipse class="j" cx="100.16" cy="652.25" rx="22.62" ry="5.48" transform="translate(-188.14 58.66) rotate(-17.17)"/><ellipse class="s" cx="100.1" cy="652.2" rx="11.83" ry="3.71" transform="translate(-174.68 52.3) rotate(-15.88)"/><ellipse class="h" cx="100.06" cy="652.21" rx="6.93" ry="1.77" transform="translate(-186.05 57.63) rotate(-16.97)"/><path class="i" d="M99.56,648.02c4.5-.55,6.5,1.45,6.87,1.82,.22,.22,.3,.37,.29,.54-.01,1.38-4.94,3.07-5.32,3.2-.97,.33-5.21,1.75-7.3,1.12-.97-.29-1.05-.89-1.2-1.89-.15-1.03-.26-1.83,.86-2.74,1.37-1.11,3.9-1.82,5.79-2.05Z"/><path class="j" d="M121.09,644.64c.4,.37,.62,.85,.62,.85,.18,.39,.27,.59,.15,.64-.57,.28-3.86-1.75-8.69-2.49-2.33-.36-5.84-.54-11.09,.16-5.46,.67-9.72,2.16-12.71,3.21-1.25,.44-2.44,.88-3.9,1.57-3.75,1.8-5.38,3.51-6.05,3.46-.45-.04-.11-.84,.13-1.23,2.15-3.48,18.33-8.91,30.66-8.69,7.35,.13,10.56,2.22,10.88,2.52Z"/><path class="j" d="M78.21,652.94c.4-.14,.99-.11,1.18,.05,.18,.15-.02,.36-.19,.6-.67,.95-.26,1.44-.57,1.51-.36,.09-1.09-.51-1.04-1.25,.01-.24,.04-.72,.62-.92Z"/><path class="j" d="M80.36,659.78c-.49-.34-.81-.78-.81-.78-.27-.37-.4-.55-.29-.61,.53-.29,4.33,1.49,9.46,1.95,2.47,.22,6.12,.22,11.37-.71,5.48-.92,9.56-2.57,12.41-3.73,1.2-.48,2.32-.97,3.68-1.71,3.49-1.92,4.8-3.65,5.5-3.63,.47,.01,.29,.8,.12,1.19-1.49,3.45-17.01,9.5-29.74,9.91-7.59,.25-11.33-1.6-11.71-1.87Z"/><path class="j" d="M122.62,649.96c-.42,.1-.94,0-1.05-.18-.1-.17,.18-.38,.45-.61,1.04-.92,.88-1.48,1.19-1.52,.36-.05,.75,.66,.39,1.42-.12,.25-.36,.76-.97,.9Z"/><path class="v" d="M135.18,637.67c.73,.66,1.12,1.5,1.12,1.5,.33,.7,.49,1.04,.27,1.15-1.05,.5-7.09-3.07-16-4.31-4.3-.6-10.76-.87-20.45,.44-10.09,1.28-17.97,3.99-23.5,5.9-2.31,.8-4.51,1.59-7.21,2.86-6.95,3.25-9.97,6.33-11.21,6.25-.83-.06-.19-1.5,.26-2.2,4.03-6.23,33.96-16.14,56.71-15.92,13.57,.13,19.45,3.82,20.03,4.34Z"/><path class="v" d="M65.23,665.36c-.81-.63-1.31-1.44-1.31-1.44-.41-.67-.61-1.01-.4-1.12,1.01-.52,7.54,2.82,16.73,3.81,4.43,.48,11.03,.57,20.74-.97,10.11-1.52,17.83-4.39,23.25-6.41,2.27-.84,4.41-1.68,7.02-3,6.71-3.37,9.45-6.48,10.72-6.42,.85,.03,.36,1.47-.03,2.16-3.42,6.22-32.77,16.73-55.9,17.11-13.8,.23-20.18-3.23-20.82-3.73Z"/><path class="v" d="M56.04,652.48c1.41-.46,3.45-.4,4.12,.11,.62,.47-.1,1.18-.71,1.98-2.4,3.13-.98,4.69-2.06,4.95-1.25,.3-3.76-1.61-3.57-4,.06-.79,.18-2.36,2.22-3.03Z"/><path class="v" d="M144,648.43c-1.47,.37-3.36,.15-3.83-.43-.43-.53,.47-1.22,1.29-2,3.24-3.07,2.4-4.8,3.5-4.99,1.26-.21,3.01,1.97,2.08,4.44-.31,.82-.92,2.44-3.04,2.98Z"/><path class="r" d="M161.48,627.59c.96,1.26,1.37,2.82,1.37,2.82,.34,1.29,.51,1.93,.15,2.09-1.7,.79-10.07-6.25-23.31-9.42-6.39-1.53-16.13-2.68-31.12-1.31-15.58,1.27-28.15,5.35-36.96,8.21-3.69,1.2-7.19,2.41-11.58,4.41-11.27,5.15-16.54,10.38-18.4,10.1-1.25-.19,.04-2.72,.88-3.93,7.5-10.8,55.11-25.58,89.56-22.85,20.55,1.63,28.65,8.87,29.41,9.87Z"/><path class="r" d="M45.47,678.07c-1.58-1.04-2.7-2.4-2.7-2.4-.93-1.13-1.4-1.69-1.1-1.88,1.43-.9,13.38,4.56,28.71,5.97,7.39,.68,18.15,.66,33.28-2.22,15.8-2.85,27.18-7.92,35.15-11.48,3.34-1.49,6.48-2.97,10.18-5.26,9.53-5.89,12.72-11.21,14.8-11.16,1.4,.03,1.17,2.47,.83,3.65-3.04,10.6-46.42,29.19-83.84,30.48-22.31,.77-34.08-4.9-35.32-5.72Z"/><path class="r" d="M170.36,647.23c-2.2,.57-5.03,.21-5.73-.69-.65-.83,.7-1.89,1.94-3.09,4.87-4.72,3.62-7.41,5.26-7.69,1.89-.32,4.49,3.07,3.09,6.88-.46,1.26-1.39,3.77-4.56,4.59Z"/><path class="r" d="M34.87,646.48c2.2-.57,5.03-.22,5.74,.68,.66,.83-.69,1.89-1.92,3.09-4.84,4.72-3.56,7.41-5.21,7.69-1.89,.33-4.52-3.05-3.15-6.87,.46-1.26,1.36-3.77,4.53-4.59Z"/></g><ellipse class="l" cx="1131.12" cy="209.55" rx="134.4" ry="134.5" transform="translate(11.8 475) rotate(-23.84)"/><ellipse class="t" cx="107.85" cy="462.96" rx="53.52" ry="53.93" transform="translate(-177.9 83.07) rotate(-23.84)"/><ellipse class="u" cx="353.76" cy="102.24" rx="31.52" ry="31.16" transform="translate(-11.14 151.69) rotate(-23.84)"/><ellipse class="m" cx="610.22" cy="198.88" rx="23.25" ry="23.49" transform="translate(-28.32 263.58) rotate(-23.84)"/><ellipse class="o" cx="973.59" cy="647.15" rx="65.05" ry="65" transform="translate(-178.49 448.67) rotate(-23.84)"/><circle class="n" cx="317.5" cy="311.5" r="4.5"/><circle class="n" cx="35.5" cy="137.5" r="4.5"/><circle class="n" cx="552.5" cy="117.5" r="4.5"/><circle class="n" cx="211.5" cy="563.5" r="4.5"/><circle class="n" cx="1051.5" cy="545.5" r="4.5"/><circle class="n" cx="645.5" cy="646.5" r="4.5"/><circle class="n" cx="713.5" cy="356.5" r="4.5"/><circle class="n" cx="1277.5" cy="46.5" r="4.5"/></svg>