<?xml version="1.0" encoding="utf-8"?>
<!-- Generator: Adobe Illustrator 27.4.0, SVG Export Plug-In . SVG Version: 6.00 Build 0)  -->
<svg version="1.1" id="Layer_1" xmlns="http://www.w3.org/2000/svg" xmlns:xlink="http://www.w3.org/1999/xlink" x="0px" y="0px"
	 viewBox="0 0 239 234" style="enable-background:new 0 0 239 234;" xml:space="preserve">
<style type="text/css">
	.st0{fill:#00FF83;}
	.st1{fill:#44006A;}
	.st2{fill:#74006A;}
</style>
<g>
	<path class="st0" d="M6.41,223.25c4.78,3.65,9.99-0.75,34,2c30.71,3.52,37.66,12.5,46,8c15.84-8.54-2.69-44.82,10-91
		c7.95-28.94,29.92-70.86,56-72c36.11-1.57,60.62,75.93,78,70c9.22-3.15,10.45-27.74,7-46c-8.99-47.57-57.44-93.08-102-94
		C41.14-1.69-19.72,203.29,6.41,223.25z"/>
	<path class="st1" d="M71.41,224.25c2.63,2.31,10.68,9.38,17,7c6.39-2.4,7.97-13.32,9-27c2.4-31.98-0.8-45.4,0-58
		c2.11-33.43,32.91-70.71,59-71c37.31-0.42,59.17,74.87,72,70c8.52-3.23,7.2-39.62-9-68c-3.84-6.73-24.61-41.19-61-46
		c-47.58-6.29-86.81,42.76-101,79C39.81,155.17,50.67,206.05,71.41,224.25z"/>
	<ellipse class="st2" cx="90.41" cy="191.25" rx="7" ry="16"/>
	<ellipse class="st2" cx="74.41" cy="186.25" rx="7" ry="16"/>
	<ellipse class="st2" cx="90.41" cy="157.25" rx="7" ry="16"/>
	<ellipse class="st2" cx="75.41" cy="150.25" rx="7" ry="16"/>
	<ellipse transform="matrix(0.254 -0.9672 0.9672 0.254 -47.5095 186.8918)" class="st2" cx="97.41" cy="124.25" rx="16" ry="7"/>
	<ellipse transform="matrix(0.254 -0.9672 0.9672 0.254 -49.0538 166.335)" class="st2" cx="83.31" cy="114.97" rx="16" ry="7"/>
	<ellipse transform="matrix(0.5423 -0.8402 0.8402 0.5423 -27.4744 139.5018)" class="st2" cx="114.31" cy="94.97" rx="16" ry="7"/>
	<ellipse transform="matrix(0.5423 -0.8402 0.8402 0.5423 -25.8626 124.4606)" class="st2" cx="101.31" cy="85.97" rx="16" ry="7"/>
	<ellipse transform="matrix(0.8945 -0.4472 0.4472 0.8945 -19.0558 71.2044)" class="st2" cx="141.31" cy="75.97" rx="16" ry="7"/>
	<ellipse transform="matrix(0.8945 -0.4472 0.4472 0.8945 -14.2982 65.3608)" class="st2" cx="131.31" cy="62.97" rx="16" ry="7"/>
	<ellipse transform="matrix(0.4159 -0.9094 0.9094 0.4159 33.0562 201.4019)" class="st2" cx="173.31" cy="74.97" rx="7" ry="16"/>
	<ellipse transform="matrix(0.3224 -0.9466 0.9466 0.3224 59.8521 199.5486)" class="st2" cx="169.31" cy="57.97" rx="7" ry="16"/>
	<ellipse transform="matrix(0.8373 -0.5467 0.5467 0.8373 -21.4642 123.7972)" class="st2" cx="197.31" cy="97.97" rx="7" ry="16"/>
	<ellipse transform="matrix(0.8373 -0.5467 0.5467 0.8373 -10.4855 124.6961)" class="st2" cx="204.31" cy="79.97" rx="7" ry="16"/>
	
		<ellipse transform="matrix(0.8373 -0.5467 0.5467 0.8373 -34.3899 138.3542)" class="st2" cx="215.31" cy="126.97" rx="7" ry="16"/>
	
		<ellipse transform="matrix(0.8373 -0.5467 0.5467 0.8373 -23.7365 138.1598)" class="st2" cx="220.31" cy="108.97" rx="7" ry="16"/>
</g>
</svg>
